The.Innkeepers.2011.BRRip.XviD-RLF
~~~~~~~~~~~~~~~~~~~~~~~~~~~~~~~~~~  
                                          

GENERAL:

Complete name                    : rlf-innkeepers.avi
Format                           : AVI
Format/Info                      : Audio Video Interleave
File size                        : 699 MiB
Duration                         : 1h 41mn
Overall bit rate                 : 965 Kbps
Language                         : English
Subs                             : N/A 
Encoder                          : Ralf

Video:

                     
Format                           : MPEG-4 Visual
Format profile                   : Advanced Simple@L5
Format settings, BVOP            : 2
Format settings, QPel            : No
Format settings, GMC             : No warppoints
Format settings, Matrix          : H.263
Muxing mode                      : Packed bitstream
Codec ID                         : XVID
Duration                         : 1h 41mn
Bit rate                         : 827 Kbps
Width                            : 688 pixels
Height                           : 288 pixels
Display aspect ratio             : 2.35:1
Frame rate                       : 23.976 fps
Color space                      : YUV
Chroma subsampling               : 4:2:0
Bit depth                        : 8 bits
Scan type                        : Progressive
Bits/(Pixel Frame)               : 0.174
Stream size                      : 600 MiB (86%)      
Writing library                  : XviD 64

Audio:


Format                           : MPEG Audio
Codec ID/Hint                    : MP3
Duration                         : 1h 41mn
Bit rate mode                    : Constant
Bit rate                         : 128 Kbps
Channel(s)                       : 2 channels
Sampling rate                    : 48.0 KHz
Stream size                      : 92.8 MiB (13%)
Alignment                        : Split accross interleaves
Interleave, duration             : 42 ms (1.00 video frame)
Interleave, preload duration     : 500 ms
                   

MOVIE INFO:


During the final days at the Yankee Pedlar Inn, two employees determined to 
reveal the hotel's haunted past begin to experience disturbing events as old 
guests check in for a stay. 
                                           
http://www.imdb.com/title/tt1594562/ 
http://www.filmweb.pl/film/Innkeepers,+The-2011-560890
                                               
SOURCE:

HDChina's 1080p.BluRay.x264.DTS (Very nice source HDC THX)


RESPECT:

Real P2P Encoders and all Scene massive

Like AMi says... "sweetest downfall"
